<?xml version="1.0" standalone="no"?>
<!DOCTYPE svg PUBLIC "-//W3C//DTD SVG 20010904//EN"
 "http://www.w3.org/TR/2001/REC-SVG-20010904/DTD/svg10.dtd">
<svg version="1.0" xmlns="http://www.w3.org/2000/svg"
 width="640.000000pt" height="640.000000pt" viewBox="0 0 640.000000 640.000000"
 preserveAspectRatio="xMidYMid meet">

<g transform="translate(0.000000,640.000000) scale(0.100000,-0.100000)"
fill="#000000" stroke="none">
<path d="M3020 5219 c-154 -40 -282 -119 -380 -233 -36 -42 -327 -519 -840
-1377 -432 -721 -796 -1332 -809 -1358 -116 -222 -112 -505 10 -718 94 -163
236 -277 434 -344 l70 -24 1695 0 1695 0 80 28 c225 77 387 227 471 435 73
180 66 403 -17 582 -42 90 -1583 2666 -1643 2746 -92 124 -246 223 -410 264
-105 26 -253 26 -356 -1z m354 -208 c116 -41 202 -106 268 -203 30 -44 1301
-2167 1535 -2563 86 -145 113 -227 113 -339 0 -243 -141 -436 -379 -518 l-66
-23 -1645 0 -1645 0 -66 23 c-96 33 -176 84 -237 150 -149 162 -185 409 -87
602 45 89 1576 2644 1617 2698 69 92 188 165 313 192 64 14 213 4 279 -19z"/>
<path d="M3145 4731 c-56 -16 -80 -29 -111 -63 -36 -37 -1591 -2634 -1611
-2688 -38 -107 10 -230 112 -287 l50 -28 1595 -3 c1457 -2 1600 -1 1647 14
136 43 201 197 139 329 -44 93 -1567 2630 -1599 2664 -18 18 -46 39 -63 47
-41 17 -122 25 -159 15z m99 -238 c36 -55 1512 -2526 1531 -2563 33 -64 149
-60 -1576 -60 -1527 0 -1569 0 -1578 19 -9 16 118 234 760 1307 424 709 777
1299 785 1312 22 33 50 27 78 -15z"/>
</g>
</svg>
