<?xml version="1.0" standalone="no"?>
<!DOCTYPE svg PUBLIC "-//W3C//DTD SVG 20010904//EN"
 "http://www.w3.org/TR/2001/REC-SVG-20010904/DTD/svg10.dtd">
<svg version="1.0" xmlns="http://www.w3.org/2000/svg"
 width="900.000000pt" height="900.000000pt" viewBox="0 0 900.000000 900.000000"
 preserveAspectRatio="xMidYMid meet">

<g transform="translate(0.000000,900.000000) scale(0.100000,-0.100000)"
fill="#000000" stroke="none">
<path d="M4068 7326 c-52 -19 -81 -39 -109 -77 -41 -55 -120 -131 -222 -213
-224 -180 -302 -336 -408 -809 -7 -32 -15 -60 -19 -62 -3 -2 -59 -11 -124 -19
-257 -34 -439 -122 -496 -241 -57 -118 10 -293 174 -456 l67 -67 -16 -50 c-14
-41 -15 -58 -6 -84 14 -41 68 -124 146 -224 l60 -77 6 -166 c3 -91 7 -167 8
-169 0 -1 20 -23 43 -48 44 -48 85 -74 115 -74 16 0 18 -12 20 -128 1 -145 16
-201 83 -312 83 -142 247 -247 473 -306 34 -9 77 -24 97 -33 19 -10 81 -41
136 -69 124 -63 188 -81 319 -88 112 -7 351 23 410 52 40 19 176 155 246 247
29 37 58 67 65 67 7 0 66 -15 131 -34 65 -18 213 -57 329 -86 193 -49 212 -52
239 -39 65 31 90 111 64 200 -19 60 -43 76 -154 98 -55 11 -163 33 -240 50
-77 16 -157 32 -177 35 l-38 7 16 37 c62 142 77 400 35 604 l-24 116 28 47
c97 166 145 316 146 454 1 53 3 103 5 113 3 9 38 41 78 71 40 30 113 95 163
144 73 71 94 99 111 146 12 32 22 69 22 83 0 64 -61 129 -164 175 -71 31 -224
66 -322 74 -141 10 -138 8 -229 151 -235 369 -410 600 -589 780 -116 115 -186
160 -286 183 -62 14 -168 13 -212 -3z m619 -762 c120 -25 247 -80 355 -156 56
-39 108 -103 108 -133 0 -19 -5 -19 -110 0 -143 25 -459 36 -710 25 -124 -6
-236 -13 -250 -15 -14 -3 -108 -16 -210 -30 -102 -13 -243 -33 -314 -45 -157
-24 -156 -24 -156 -2 0 25 29 50 132 111 193 115 427 200 648 235 52 8 106 17
120 19 71 12 316 6 387 -9z m261 -449 c89 -8 179 -22 200 -31 46 -19 95 -66
128 -121 14 -24 29 -43 35 -43 15 0 28 -44 16 -52 -7 -4 -6 -16 2 -36 7 -17
10 -44 6 -60 -4 -19 1 -50 15 -88 32 -89 50 -147 50 -165 0 -14 -6 -14 -57 -3
-32 7 -143 23 -248 35 -172 21 -232 23 -635 23 -361 -1 -497 -5 -721 -22 -305
-24 -363 -26 -355 -13 3 5 22 12 42 16 20 3 47 10 60 15 24 9 24 10 8 52 -31
79 -31 79 -139 -2 -53 -40 -99 -70 -102 -67 -3 3 34 46 82 96 82 85 100 118
69 128 -6 2 -37 -26 -68 -62 -54 -61 -86 -81 -86 -53 0 13 40 67 93 124 20 23
53 73 71 111 40 83 74 113 181 165 158 76 187 79 720 73 306 -3 527 -10 633
-20z m-1784 -739 c19 -8 52 -31 75 -51 l41 -37 71 16 c39 9 77 16 85 16 25 0
43 -31 80 -142 50 -152 81 -215 129 -263 55 -55 120 -73 325 -87 91 -6 166
-12 168 -13 7 -6 -179 -273 -193 -279 -8 -3 -23 -21 -32 -40 -26 -56 -40 -52
-40 10 0 31 -5 60 -12 67 -8 8 -11 1 -11 -28 0 -54 -10 -85 -25 -85 -14 0 -16
4 -35 78 -16 61 -30 52 -30 -19 0 -77 -15 -74 -49 8 -32 75 -48 100 -57 91 -3
-4 -2 -20 4 -35 18 -45 27 -127 13 -119 -9 6 -96 177 -128 256 -9 20 -12 22
-17 9 -4 -8 2 -35 13 -59 31 -69 9 -68 -35 1 -22 35 -29 39 -59 37 -48 -3 -54
9 -14 26 55 23 72 48 64 93 -9 55 -16 63 -66 71 l-44 8 32 19 c37 22 42 34 34
100 -6 49 -7 50 -48 59 -52 12 -55 23 -9 32 l35 6 -1 75 -1 75 -54 -5 c-72 -8
-83 -18 -72 -65 16 -70 11 -99 -31 -164 -64 -101 -56 -161 36 -280 l44 -56
-20 -65 c-27 -88 -39 -96 -84 -56 -20 17 -42 41 -49 53 -9 15 -12 104 -12 318
0 288 -1 298 -21 318 -25 26 -90 49 -116 43 -10 -3 -21 -17 -25 -30 -6 -27 10
-62 58 -123 33 -41 82 -145 77 -161 -4 -11 -123 141 -166 212 -24 39 -29 98
-11 130 23 44 118 62 183 35z m1431 -150 c18 -8 40 -25 49 -38 27 -42 54 -151
59 -243 3 -53 13 -113 25 -145 22 -62 42 -160 42 -209 0 -41 -34 -76 -87 -90
-67 -18 -142 2 -209 56 -58 46 -121 73 -178 73 -43 0 -53 4 -82 36 -19 19 -34
43 -34 52 0 25 38 74 88 112 90 70 100 83 146 198 52 128 69 158 105 189 31
27 32 27 76 9z m-1264 -243 c8 -57 6 -83 -5 -83 -21 0 -36 23 -36 57 0 26 4
33 20 33 11 0 20 -3 21 -7z m1934 -135 c3 -13 12 -52 20 -88 34 -148 8 -505
-41 -563 -11 -12 -19 -23 -20 -24 0 -2 -12 3 -27 10 -18 8 -29 22 -33 45 -8
40 -18 41 -34 2 -18 -43 -44 -41 -36 3 22 106 22 107 -24 39 -57 -85 -72 -68
-25 29 19 40 35 87 35 104 -1 59 -38 116 -141 216 -87 84 -100 100 -94 121 16
48 24 66 35 73 7 4 67 9 133 10 92 2 135 8 177 23 70 26 69 26 75 0z m-1039
-297 c48 -24 120 -48 182 -62 l103 -23 -7 -42 c-5 -36 -3 -44 17 -58 35 -24
55 -20 77 19 14 23 41 44 81 65 33 16 62 30 64 30 9 0 40 -169 34 -184 -4 -11
-15 -13 -42 -9 -21 3 -63 -2 -102 -12 -58 -16 -75 -16 -147 -5 -87 13 -120 8
-259 -42 -71 -25 -97 -21 -181 32 -72 45 -120 95 -110 113 44 77 176 217 205
217 4 0 42 -18 85 -39z m687 -21 c62 -69 92 -132 77 -161 -16 -30 -61 -68 -81
-69 -33 0 -93 82 -108 150 -9 40 -7 50 15 87 14 24 31 43 38 43 8 0 34 -23 59
-50z m-1384 -49 c67 -77 98 -91 203 -91 l83 -1 113 -110 113 -110 -57 -74
c-71 -94 -88 -109 -79 -72 5 17 3 27 -4 27 -6 0 -11 -15 -11 -32 0 -38 -48
-139 -69 -146 -11 -4 -12 0 -6 14 14 33 19 188 6 180 -6 -4 -11 -21 -11 -38 0
-44 -20 -105 -41 -124 -27 -24 -38 -10 -28 33 12 52 11 140 -1 148 -6 4 -10
-16 -10 -53 0 -51 -3 -62 -23 -75 l-22 -14 -3 121 c-1 66 -7 125 -13 131 -7 7
-9 -30 -6 -120 2 -71 6 -136 8 -144 2 -7 -2 -16 -8 -18 -8 -3 -13 3 -13 15 0
11 -7 25 -15 32 -8 6 -14 15 -13 18 1 4 -4 25 -10 47 -6 22 -14 73 -18 113 -4
40 -10 75 -15 78 -4 2 -6 -17 -4 -43 11 -122 13 -193 6 -193 -12 0 -48 78 -60
131 -5 25 -13 76 -17 113 -4 36 -11 66 -16 66 -4 0 -6 -10 -3 -22 3 -13 7 -58
9 -101 3 -74 3 -77 -14 -62 -10 9 -20 33 -23 53 -3 20 -10 57 -17 82 -6 25 -9
57 -6 73 3 15 1 27 -4 27 -12 0 -13 -111 -1 -162 11 -48 -1 -49 -29 -3 -25 40
-37 137 -32 262 3 78 5 82 30 92 59 21 77 14 131 -48z m1379 -350 c4 -65 -9
-83 -57 -79 -36 3 -36 3 -35 49 0 26 8 58 17 72 14 21 21 24 44 18 26 -7 28
-12 31 -60z m-452 -6 c62 -25 142 -52 178 -59 101 -22 109 -34 44 -67 -39 -20
-46 -20 -136 -9 -52 6 -116 17 -143 24 -59 16 -119 55 -119 79 0 21 39 77 54
77 6 0 61 -20 122 -45z m-255 -1 c9 -8 21 -31 27 -52 6 -21 31 -57 57 -82 25
-24 45 -48 45 -52 0 -5 -24 -19 -52 -32 -29 -12 -59 -30 -67 -39 -18 -22 -10
-21 41 5 32 17 64 23 133 26 105 5 310 -20 357 -42 42 -20 140 -114 135 -129
-7 -23 -94 -73 -148 -85 -140 -31 -349 -36 -450 -11 -19 5 -46 20 -59 34 -14
15 -34 25 -52 25 -33 0 -47 24 -30 51 7 10 12 27 12 36 -1 14 -8 10 -31 -15
-28 -31 -49 -35 -49 -8 0 6 12 36 26 65 15 28 23 55 20 58 -6 6 -42 -32 -83
-86 -10 -14 -12 -14 -19 2 -7 19 33 105 68 144 11 12 18 27 16 34 -2 6 -28
-18 -58 -55 -36 -45 -57 -63 -64 -56 -10 10 24 87 60 138 24 32 -1 28 -34 -5
-15 -16 -39 -44 -53 -63 -15 -19 -30 -32 -34 -28 -13 12 33 96 95 172 l62 77
57 -7 c31 -3 63 -13 72 -20z m1549 -95 c0 -5 -14 -27 -30 -48 -36 -44 -45 -89
-32 -148 8 -33 7 -40 -4 -36 -18 7 -34 58 -34 110 0 37 6 50 41 88 41 45 59
55 59 34z"/>
<path d="M5130 4368 c0 -9 7 -21 15 -28 8 -7 15 -18 15 -24 0 -7 11 -27 25
-46 14 -19 25 -42 25 -52 0 -18 15 -25 24 -10 2 4 -20 45 -50 91 -30 46 -54
77 -54 69z"/>
<path d="M1494 3350 c13 -14 29 -35 35 -47 8 -15 11 -222 11 -714 l0 -692 -41
-39 c-23 -22 -38 -42 -35 -45 8 -8 542 -4 565 4 35 13 84 57 97 89 11 27 14
149 14 678 0 431 -4 654 -11 673 -11 31 -53 78 -84 96 -13 8 -113 14 -297 17
l-277 5 23 -25z m374 -792 c-3 -503 -4 -523 -22 -526 -10 -2 -22 2 -27 10 -5
7 -9 244 -9 526 l0 512 30 0 30 0 -2 -522z"/>
<path d="M4054 3350 c13 -14 29 -35 35 -47 15 -29 16 -1367 1 -1409 -6 -16
-24 -38 -40 -49 -17 -11 -30 -23 -30 -27 0 -5 93 -8 207 -8 l206 0 -21 23
c-38 41 -42 71 -42 318 l0 239 24 0 c14 0 28 -6 33 -12 4 -7 10 -130 13 -274
4 -201 8 -265 19 -277 11 -14 36 -17 157 -17 79 0 144 3 144 7 0 3 -8 15 -17
26 -16 17 -19 52 -23 333 l-5 314 -33 31 -33 30 26 31 26 31 -3 321 c-3 358
-1 347 -74 403 l-37 28 -278 5 -278 5 23 -25z m375 -234 c8 -9 11 -66 9 -182
l-3 -168 -25 -13 c-21 -11 -26 -10 -32 5 -9 22 -10 357 -1 365 11 12 40 8 52
-7z"/>
<path d="M5538 3341 l-33 -29 -3 -751 -2 -751 147 0 148 1 -27 20 -28 21 0
403 0 404 53 3 52 3 37 70 c20 39 37 80 37 93 1 20 -3 22 -58 22 -32 0 -73 3
-90 6 l-31 7 0 151 c0 167 3 176 57 176 l33 0 0 -110 c0 -60 4 -110 9 -110 10
0 114 85 174 143 l40 37 -6 65 c-7 76 -37 140 -69 149 -13 3 -110 6 -215 6
l-193 0 -32 -29z"/>
<path d="M7435 3246 c-105 -45 -126 -202 -39 -275 108 -88 255 -18 256 122 1
121 -111 200 -217 153z"/>
<path d="M3110 2823 c-76 -64 -186 -150 -203 -157 -8 -3 -2 -14 16 -28 l27
-24 0 -401 c0 -374 1 -401 18 -404 9 -2 74 -3 144 -1 126 3 127 3 107 23 -18
18 -19 36 -19 412 0 220 4 398 9 407 12 17 76 19 94 2 9 -10 13 -112 15 -425
l3 -412 142 -3 142 -2 -27 22 -28 23 -2 462 -3 463 -36 36 c-21 21 -51 39 -74
44 -56 13 -147 -7 -198 -42 -14 -11 -19 -10 -27 2 -5 8 -10 25 -10 38 0 33
-18 26 -90 -35z"/>
<path d="M6815 2844 c-53 -48 -212 -171 -228 -177 -8 -3 -2 -14 16 -31 l27
-27 0 -399 c0 -219 3 -401 8 -403 4 -2 70 -2 146 1 134 4 138 5 117 21 -27 20
-28 39 -23 518 l2 293 25 16 c18 12 31 14 52 7 l28 -10 5 -419 5 -419 138 -3
c75 -1 137 1 137 5 0 5 -9 14 -20 21 -20 12 -20 23 -20 457 0 480 -2 505 -54
538 -65 43 -176 39 -248 -9 -52 -33 -59 -31 -52 16 8 51 -7 52 -61 4z"/>
<path d="M7555 2847 c-93 -76 -204 -163 -221 -173 -18 -11 -18 -13 5 -38 l25
-26 -1 -396 c0 -217 3 -396 6 -399 4 -2 67 -5 141 -6 95 -2 135 1 138 9 2 7
-3 12 -11 12 -8 0 -18 7 -21 16 -3 9 -6 245 -6 525 0 280 -3 509 -7 509 -5 -1
-26 -16 -48 -33z"/>
<path d="M2423 2860 c-56 -12 -120 -45 -137 -73 -47 -71 -49 -92 -47 -465 3
-411 7 -434 78 -488 37 -28 52 -33 129 -39 96 -8 228 0 271 16 16 6 41 22 56
37 56 53 57 61 57 476 0 225 -4 396 -10 417 -12 43 -52 86 -98 106 -40 17
-240 26 -299 13z m157 -289 c15 -29 14 -483 -2 -499 -19 -19 -66 -15 -78 7
-13 25 -13 451 0 485 12 33 64 37 80 7z"/>
<path d="M6130 2864 c-110 -19 -153 -48 -189 -123 l-26 -56 0 -360 c0 -385 1
-393 52 -463 44 -59 70 -66 248 -66 171 -1 195 5 241 56 59 64 59 63 61 453 1
290 -1 371 -13 415 -16 60 -52 105 -101 126 -31 14 -226 27 -273 18z m130
-293 c15 -29 14 -483 -2 -499 -19 -19 -66 -15 -78 7 -13 25 -13 451 0 485 12
33 64 37 80 7z"/>
<path d="M4974 2841 c-23 -14 -46 -48 -83 -121 -28 -56 -51 -106 -51 -111 0
-6 26 4 57 22 51 30 68 34 148 37 106 5 124 -5 109 -61 -8 -25 -42 -58 -149
-144 -77 -62 -155 -128 -172 -147 l-33 -36 0 -201 0 -202 36 -33 35 -34 103 0
c113 0 123 5 160 78 20 39 31 35 40 -13 12 -60 24 -65 152 -65 l114 0 -15 24
c-14 21 -17 87 -21 476 -5 489 -5 486 -60 529 -25 19 -40 21 -183 21 -136 0
-160 -3 -187 -19z m176 -677 l0 -157 -41 6 c-23 3 -46 11 -50 19 -13 19 -11
186 2 211 11 23 68 76 82 77 4 0 7 -70 7 -156z"/>
<path d="M2623 1529 c-45 -22 -67 -59 -61 -105 2 -23 16 -37 68 -71 133 -85
143 -102 91 -154 -47 -46 -97 -39 -133 19 -22 36 -22 36 -28 12 -9 -37 0 -60
27 -71 33 -12 93 -11 131 2 32 11 72 66 72 97 0 37 -40 82 -102 113 -95 48
-107 74 -62 128 34 40 62 39 104 -4 36 -37 57 -34 45 5 -7 22 -59 50 -92 50
-10 0 -37 -9 -60 -21z"/>
<path d="M3228 1535 c-27 -15 -79 -110 -130 -239 -13 -32 -27 -59 -33 -59 -11
0 -30 35 -101 188 -25 55 -47 101 -48 101 0 1 -15 5 -33 8 l-31 7 20 -41 c20
-39 20 -47 8 -166 -11 -113 -10 -147 5 -132 3 3 11 53 17 111 7 59 15 107 18
107 7 0 45 -79 88 -185 16 -38 35 -71 43 -73 15 -3 51 71 88 180 11 31 25 67
32 80 l12 23 9 -30 c5 -16 7 -82 6 -145 l-3 -115 35 -3 c19 -1 42 2 49 7 13 8
11 13 -6 28 -20 17 -22 29 -25 163 -2 100 1 152 10 167 21 38 14 42 -30 18z"/>
<path d="M3462 1529 c-85 -43 -128 -124 -116 -221 6 -46 13 -59 54 -99 61 -59
139 -76 213 -46 45 19 105 89 113 132 20 106 -19 189 -110 231 -63 29 -99 30
-154 3z m142 -28 c54 -30 66 -58 68 -152 2 -68 -1 -92 -15 -113 -45 -68 -140
-87 -197 -40 -17 15 -37 39 -45 55 -19 36 -20 161 -1 197 39 76 113 97 190 53z"/>
<path d="M5057 1539 c-10 -6 -32 -7 -50 -3 -26 5 -30 4 -20 -7 14 -18 17 -336
2 -344 -5 -4 -9 -13 -9 -21 0 -10 12 -14 44 -14 49 0 64 11 41 30 -23 19 -22
306 1 338 19 27 16 34 -9 21z"/>
<path d="M5280 1534 c-116 -50 -162 -178 -103 -285 31 -58 72 -87 136 -95 71
-10 114 3 163 48 52 48 69 98 60 177 -8 70 -42 116 -110 147 -59 27 -97 29
-146 8z m120 -26 c64 -33 80 -61 86 -149 4 -59 2 -81 -13 -109 -26 -49 -76
-80 -131 -80 -38 0 -50 5 -82 38 -47 46 -64 103 -54 178 7 59 30 96 78 125 40
25 62 24 116 -3z"/>
<path d="M6084 1536 c-41 -18 -64 -52 -64 -94 0 -51 15 -69 88 -106 85 -43 96
-56 88 -101 -5 -25 -15 -39 -36 -50 -45 -23 -70 -18 -107 21 -38 41 -48 40
-38 -4 8 -40 49 -57 118 -49 43 5 58 13 85 42 26 28 31 41 26 63 -11 54 -29
73 -97 109 -86 46 -104 70 -83 111 17 33 65 57 95 47 11 -3 29 -22 40 -41 25
-41 40 -38 33 7 -7 51 -82 74 -148 45z"/>
<path d="M3810 1529 c0 -4 5 -11 10 -14 6 -4 10 -70 10 -164 0 -129 -3 -161
-15 -171 -25 -21 -17 -30 28 -30 53 0 74 12 53 29 -20 17 -29 64 -21 112 10
61 37 50 109 -46 64 -83 92 -99 146 -84 18 5 20 7 7 8 -22 1 -139 111 -168
158 -12 19 -18 41 -14 52 7 22 130 141 145 141 6 0 10 3 10 8 0 4 -19 7 -43 7
-38 0 -43 -3 -40 -20 3 -14 -17 -43 -62 -92 -37 -40 -70 -73 -75 -73 -21 0
-18 118 4 170 5 12 -3 15 -39 16 -25 0 -45 -3 -45 -7z"/>
<path d="M4211 1528 c18 -7 19 -18 19 -173 l0 -165 -27 -13 -26 -12 29 -6 c16
-3 76 -3 132 0 l104 6 13 33 c8 17 12 32 10 32 -2 0 -26 -14 -54 -31 -41 -26
-57 -31 -87 -26 -48 8 -54 19 -54 93 0 71 4 74 81 74 34 0 49 4 49 13 0 10
-16 14 -62 13 l-63 -1 -3 63 c-4 79 6 92 68 92 45 0 49 -2 59 -31 13 -38 35
-33 39 9 4 37 10 35 -150 36 -53 1 -88 -2 -77 -6z"/>
<path d="M4728 1530 c22 -9 22 -13 22 -174 0 -157 -1 -166 -21 -176 -11 -7
-18 -14 -15 -17 9 -9 58 -14 82 -8 21 5 21 6 6 47 -10 30 -13 57 -8 89 7 46 7
46 53 53 25 3 66 6 90 6 27 0 42 4 38 10 -3 6 -44 10 -89 10 -78 0 -84 1 -90
23 -10 38 -7 91 8 118 l13 26 -56 1 c-43 1 -51 -1 -33 -8z"/>
<path d="M5617 1522 c9 -10 13 -47 13 -136 0 -68 5 -136 10 -153 33 -92 193
-110 255 -29 24 31 25 40 25 158 0 108 3 129 19 150 l19 24 -49 0 c-48 0 -48
0 -29 -18 18 -17 20 -32 20 -134 0 -123 -10 -159 -52 -188 -26 -19 -80 -21
-111 -5 -51 26 -57 45 -57 185 0 125 1 132 22 146 21 14 18 15 -38 14 -51 -1
-58 -3 -47 -14z"/>
<path d="M6323 1522 c14 -16 17 -43 17 -175 0 -147 -1 -156 -20 -162 -22 -7
-27 -24 -7 -26 47 -3 229 1 237 6 13 8 13 65 1 65 -5 0 -12 -8 -15 -18 -11
-33 -50 -46 -103 -36 l-48 9 -3 78 -3 77 66 0 c50 0 65 3 65 14 0 11 -14 14
-62 13 l-63 -2 -3 54 c-5 92 0 101 58 101 49 0 90 -23 90 -50 0 -5 5 -10 11
-10 6 0 9 14 7 32 -4 40 -21 46 -147 47 -91 1 -93 0 -78 -17z"/>
<path d="M2842 1183 c-10 -4 -10 -8 -1 -19 21 -26 101 -12 85 15 -7 11 -60 14
-84 4z"/>
</g>
</svg>
